<?xml version="1.0" encoding="UTF-8"?>
<svg version="1.1" xmlns="http://www.w3.org/2000/svg" width="70" height="79">
<path d="M0 0 C1.10640839 -0.01210762 1.10640839 -0.01210762 2.23516846 -0.02445984 C3.79868216 -0.03829926 5.36222606 -0.04902206 6.92578125 -0.05688477 C9.30527945 -0.07405391 11.68337193 -0.11793262 14.0625 -0.16210938 C15.58332314 -0.17224058 17.10415807 -0.18075535 18.625 -0.1875 C19.33146667 -0.20500809 20.03793335 -0.22251617 20.76580811 -0.24055481 C25.86954854 -0.21839482 28.71393848 0.94193413 32.578125 4.23828125 C36.32422086 8.67146133 37.19470425 12.31550253 37.1796875 17.98046875 C37.18825775 18.7076712 37.196828 19.43487366 37.20565796 20.18411255 C37.21708956 21.71531023 37.21818558 23.24661646 37.20947266 24.77783203 C37.20315783 27.10120077 37.25008363 29.41944896 37.30078125 31.7421875 C37.36351891 39.04669955 37.38104794 45.1651102 32.25927734 50.89501953 C28.01132431 54.28918706 24.28854426 54.55738166 18.9609375 54.57421875 C17.85877396 54.58420395 17.85877396 54.58420395 16.73434448 54.59439087 C15.18278498 54.60449573 13.63118221 54.60920856 12.07958984 54.60888672 C9.71768791 54.61325432 7.35766463 54.64957696 4.99609375 54.6875 C3.48438135 54.69336999 1.97266013 54.69733816 0.4609375 54.69921875 C-0.58935135 54.7207753 -0.58935135 54.7207753 -1.66085815 54.74276733 C-6.71080101 54.69620406 -9.53508077 53.40225056 -13.421875 50.23828125 C-18.98925687 43.0157318 -18.63119672 36.87288417 -18.671875 28.05078125 C-18.6925 26.95185547 -18.713125 25.85292969 -18.734375 24.72070312 C-18.804568 10.00649549 -18.804568 10.00649549 -13.96948242 4.62036133 C-9.27049609 0.58685691 -5.97529066 0.06177066 0 0 Z " fill="#473488" transform="translate(28.421875,14.76171875)"/>
<path d="M0 0 C1.32 0 2.64 0 4 0 C4 1.32 4 2.64 4 4 C5.65 4.33 7.3 4.66 9 5 C9 6.32 9 7.64 9 9 C5.61981469 10.04005702 2.5219721 10.08004482 -1 10 C-1 10.66 -1 11.32 -1 12 C-0.30132812 12.26554687 0.39734375 12.53109375 1.1171875 12.8046875 C2.48230469 13.33449219 2.48230469 13.33449219 3.875 13.875 C5.23238281 14.39707031 5.23238281 14.39707031 6.6171875 14.9296875 C9 16 9 16 11 18 C11.48408063 21.71128487 11.48899662 23.35924581 9.1875 26.375 C7 28 7 28 4 28 C4 29.32 4 30.64 4 32 C2.68 32 1.36 32 0 32 C0 30.68 0 29.36 0 28 C-1.65 27.67 -3.3 27.34 -5 27 C-5 24 -5 24 -4 23 C-2.31391034 22.92794489 -0.62499341 22.91613932 1.0625 22.9375 C1.98160156 22.94652344 2.90070312 22.95554687 3.84765625 22.96484375 C4.55792969 22.97644531 5.26820312 22.98804687 6 23 C5.67 22.01 5.34 21.02 5 20 C2.99939943 19.08478813 2.99939943 19.08478813 0.625 18.5 C-2.73785226 17.57987104 -4.82295137 16.79513815 -7 14 C-7.4375 11.0625 -7.4375 11.0625 -7 8 C-5.1875 5.625 -5.1875 5.625 -3 4 C-2.01 4 -1.02 4 0 4 C0 2.68 0 1.36 0 0 Z " fill="#F4F3F8" transform="translate(36,25)"/>
<path d="M0 0 C0.33 0 0.66 0 1 0 C1.66344497 4.42296645 0.79993531 6.7390338 -1.75 10.25 C-3.90029808 13.05190356 -5.69409535 14.70125174 -9 16 C-11.75 16.125 -11.75 16.125 -14 16 C-13.43667969 15.75894531 -12.87335937 15.51789063 -12.29296875 15.26953125 C-9.52880935 13.73911932 -7.56414473 11.90192746 -5.3125 9.6875 C-4.13107422 8.54861328 -4.13107422 8.54861328 -2.92578125 7.38671875 C-0.86253467 4.82963222 -0.33707903 3.22796016 0 0 Z " fill="#10122D" transform="translate(64,53)"/>
<path d="M0 0 C0.99 0.33 1.98 0.66 3 1 C-0.465 3.97 -0.465 3.97 -4 7 C-3.04065919 3.16263678 -2.76390737 2.40339772 0 0 Z " fill="#503898" transform="translate(17,17)"/>
</svg>
